<svg width="24" height="24" viewBox="0 0 24 24" fill="none" xmlns="http://www.w3.org/2000/svg">
    <path d="M12 2C6.48 2 2 6.48 2 12C2 17.52 6.48 22 12 22C17.52 22 22 17.52 22 12C22 6.48 17.52 2 12 2ZM16.64 8.8C16.49 10.38 15.84 14.22 15.51 16.01C15.37 16.77 15.09 17.01 14.83 17.04C14.25 17.09 13.81 16.66 13.25 16.29C12.37 15.73 11.87 15.39 11.02 14.85C10.03 14.23 10.67 13.89 11.24 13.31C11.39 13.16 13.95 10.84 14 10.6C14.0069 10.5596 14.006 10.5187 13.9973 10.4787C13.9886 10.4388 13.9724 10.4007 13.949 10.366C13.9257 10.3314 13.8957 10.3007 13.8607 10.2758C13.8257 10.2508 13.7864 10.2319 13.745 10.22C13.69 10.22 13.62 10.24 13.56 10.25C13.49 10.27 12.19 11.11 9.67 12.76C9.17 13.1 8.72 13.27 8.32 13.26C7.87 13.25 7.02 13.01 6.38 12.8C5.59 12.55 4.96 12.41 5.02 11.97C5.05 11.74 5.36 11.51 5.96 11.28C8.67 10.13 10.47 9.34 11.37 8.92C14.89 7.38 15.57 7.14 16.02 7.14C16.12 7.14 16.35 7.17 16.5 7.29C16.63 7.39 16.66 7.52 16.67 7.62C16.66 7.7 16.67 7.78 16.64 8.8Z" fill="white"/>
</svg> 