<?xml version="1.0" encoding="UTF-8"?>
<svg width="24px" height="24px" viewBox="0 0 24 24" version="1.1" xmlns="http://www.w3.org/2000/svg">
    <g stroke="none" stroke-width="1" fill="none" fill-rule="evenodd">
        <path d="M12,0 C18.6274,0 24,5.3726 24,12 C24,18.6274 18.6274,24 12,24 C5.3726,24 0,18.6274 0,12 C0,5.3726 5.3726,0 12,0 Z" fill="#FFB100"/>
        <path d="M5.95724,11.7144 C9.51256,10.1766 11.8755,9.1334 13.0459,8.5848 C16.3798,6.9918 17.0525,6.7578 17.4902,6.75 C17.5829,6.7482 17.7892,6.7698 17.9252,6.8814 C18.0372,6.975 18.0675,7.0988 18.0819,7.185 C18.0963,7.2714 18.1142,7.4694 18.0999,7.6236 C17.9475,9.3642 17.2212,13.5348 16.8504,15.5406 C16.6942,16.3914 16.3865,16.6794 16.0887,16.7082 C15.4429,16.7712 14.9478,16.2822 14.3172,15.8706 C13.3301,15.2334 12.7815,14.8374 11.8247,14.2164 C10.7247,13.5054 11.4348,13.1154 12.0573,12.4674 C12.2193,12.2982 14.9119,9.8454 14.9605,9.6228 C14.9668,9.594 14.9724,9.4842 14.9088,9.4278 C14.8452,9.3714 14.7504,9.3906 14.6817,9.4062 C14.5835,9.4284 12.8152,10.5654 9.3768,12.8172 C8.8793,13.1532 8.4297,13.3164 8.0277,13.3068 C7.5849,13.2962 6.7329,13.0472 6.0942,12.8352 C5.3061,12.5742 4.6797,12.435 4.7217,11.9994 C4.7433,11.7726 5.0568,11.5404 5.9572,11.7144 L5.95724,11.7144 Z" fill="#FFFFFF"/>
    </g>
</svg> 